<svg xmlns="http://www.w3.org/2000/svg" width="1290" height="1290" viewBox="0 0 1290 1290"><rect width="1290" height="1290" rx="129" ry="129" fill="#ffffff"/><g fill="#0e1f22"><rect x="150" y="150" width="30" height="30"/><rect x="180" y="150" width="30" height="30"/><rect x="210" y="150" width="30" height="30"/><rect x="240" y="150" width="30" height="30"/><rect x="270" y="150" width="30" height="30"/><rect x="300" y="150" width="30" height="30"/><rect x="330" y="150" width="30" height="30"/><rect x="390" y="150" width="30" height="30"/><rect x="420" y="150" width="30" height="30"/><rect x="450" y="150" width="30" height="30"/><rect x="540" y="150" width="30" height="30"/><rect x="600" y="150" width="30" height="30"/><rect x="630" y="150" width="30" height="30"/><rect x="780" y="150" width="30" height="30"/><rect x="840" y="150" width="30" height="30"/><rect x="870" y="150" width="30" height="30"/><rect x="930" y="150" width="30" height="30"/><rect x="960" y="150" width="30" height="30"/><rect x="990" y="150" width="30" height="30"/><rect x="1020" y="150" width="30" height="30"/><rect x="1050" y="150" width="30" height="30"/><rect x="1080" y="150" width="30" height="30"/><rect x="1110" y="150" width="30" height="30"/><rect x="150" y="180" width="30" height="30"/><rect x="330" y="180" width="30" height="30"/><rect x="390" y="180" width="30" height="30"/><rect x="450" y="180" width="30" height="30"/><rect x="510" y="180" width="30" height="30"/><rect x="570" y="180" width="30" height="30"/><rect x="630" y="180" width="30" height="30"/><rect x="660" y="180" width="30" height="30"/><rect x="870" y="180" width="30" height="30"/><rect x="930" y="180" width="30" height="30"/><rect x="1110" y="180" width="30" height="30"/><rect x="150" y="210" width="30" height="30"/><rect x="210" y="210" width="30" height="30"/><rect x="240" y="210" width="30" height="30"/><rect x="270" y="210" width="30" height="30"/><rect x="330" y="210" width="30" height="30"/><rect x="390" y="210" width="30" height="30"/><rect x="420" y="210" width="30" height="30"/><rect x="510" y="210" width="30" height="30"/><rect x="540" y="210" width="30" height="30"/><rect x="600" y="210" width="30" height="30"/><rect x="630" y="210" width="30" height="30"/><rect x="690" y="210" width="30" height="30"/><rect x="780" y="210" width="30" height="30"/><rect x="840" y="210" width="30" height="30"/><rect x="870" y="210" width="30" height="30"/><rect x="930" y="210" width="30" height="30"/><rect x="990" y="210" width="30" height="30"/><rect x="1020" y="210" width="30" height="30"/><rect x="1050" y="210" width="30" height="30"/><rect x="1110" y="210" width="30" height="30"/><rect x="150" y="240" width="30" height="30"/><rect x="210" y="240" width="30" height="30"/><rect x="240" y="240" width="30" height="30"/><rect x="270" y="240" width="30" height="30"/><rect x="330" y="240" width="30" height="30"/><rect x="450" y="240" width="30" height="30"/><rect x="510" y="240" width="30" height="30"/><rect x="540" y="240" width="30" height="30"/><rect x="570" y="240" width="30" height="30"/><rect x="600" y="240" width="30" height="30"/><rect x="660" y="240" width="30" height="30"/><rect x="720" y="240" width="30" height="30"/><rect x="810" y="240" width="30" height="30"/><rect x="840" y="240" width="30" height="30"/><rect x="930" y="240" width="30" height="30"/><rect x="990" y="240" width="30" height="30"/><rect x="1020" y="240" width="30" height="30"/><rect x="1050" y="240" width="30" height="30"/><rect x="1110" y="240" width="30" height="30"/><rect x="150" y="270" width="30" height="30"/><rect x="210" y="270" width="30" height="30"/><rect x="240" y="270" width="30" height="30"/><rect x="270" y="270" width="30" height="30"/><rect x="330" y="270" width="30" height="30"/><rect x="420" y="270" width="30" height="30"/><rect x="480" y="270" width="30" height="30"/><rect x="510" y="270" width="30" height="30"/><rect x="630" y="270" width="30" height="30"/><rect x="690" y="270" width="30" height="30"/><rect x="720" y="270" width="30" height="30"/><rect x="870" y="270" width="30" height="30"/><rect x="930" y="270" width="30" height="30"/><rect x="990" y="270" width="30" height="30"/><rect x="1020" y="270" width="30" height="30"/><rect x="1050" y="270" width="30" height="30"/><rect x="1110" y="270" width="30" height="30"/><rect x="150" y="300" width="30" height="30"/><rect x="330" y="300" width="30" height="30"/><rect x="390" y="300" width="30" height="30"/><rect x="420" y="300" width="30" height="30"/><rect x="510" y="300" width="30" height="30"/><rect x="570" y="300" width="30" height="30"/><rect x="630" y="300" width="30" height="30"/><rect x="660" y="300" width="30" height="30"/><rect x="690" y="300" width="30" height="30"/><rect x="720" y="300" width="30" height="30"/><rect x="810" y="300" width="30" height="30"/><rect x="930" y="300" width="30" height="30"/><rect x="1110" y="300" width="30" height="30"/><rect x="150" y="330" width="30" height="30"/><rect x="180" y="330" width="30" height="30"/><rect x="210" y="330" width="30" height="30"/><rect x="240" y="330" width="30" height="30"/><rect x="270" y="330" width="30" height="30"/><rect x="300" y="330" width="30" height="30"/><rect x="330" y="330" width="30" height="30"/><rect x="390" y="330" width="30" height="30"/><rect x="450" y="330" width="30" height="30"/><rect x="510" y="330" width="30" height="30"/><rect x="570" y="330" width="30" height="30"/><rect x="630" y="330" width="30" height="30"/><rect x="690" y="330" width="30" height="30"/><rect x="750" y="330" width="30" height="30"/><rect x="810" y="330" width="30" height="30"/><rect x="870" y="330" width="30" height="30"/><rect x="930" y="330" width="30" height="30"/><rect x="960" y="330" width="30" height="30"/><rect x="990" y="330" width="30" height="30"/><rect x="1020" y="330" width="30" height="30"/><rect x="1050" y="330" width="30" height="30"/><rect x="1080" y="330" width="30" height="30"/><rect x="1110" y="330" width="30" height="30"/><rect x="390" y="360" width="30" height="30"/><rect x="420" y="360" width="30" height="30"/><rect x="480" y="360" width="30" height="30"/><rect x="540" y="360" width="30" height="30"/><rect x="600" y="360" width="30" height="30"/><rect x="690" y="360" width="30" height="30"/><rect x="780" y="360" width="30" height="30"/><rect x="810" y="360" width="30" height="30"/><rect x="870" y="360" width="30" height="30"/><rect x="210" y="390" width="30" height="30"/><rect x="240" y="390" width="30" height="30"/><rect x="270" y="390" width="30" height="30"/><rect x="330" y="390" width="30" height="30"/><rect x="390" y="390" width="30" height="30"/><rect x="420" y="390" width="30" height="30"/><rect x="450" y="390" width="30" height="30"/><rect x="510" y="390" width="30" height="30"/><rect x="540" y="390" width="30" height="30"/><rect x="630" y="390" width="30" height="30"/><rect x="750" y="390" width="30" height="30"/><rect x="810" y="390" width="30" height="30"/><rect x="870" y="390" width="30" height="30"/><rect x="900" y="390" width="30" height="30"/><rect x="930" y="390" width="30" height="30"/><rect x="960" y="390" width="30" height="30"/><rect x="1050" y="390" width="30" height="30"/><rect x="1080" y="390" width="30" height="30"/><rect x="1110" y="390" width="30" height="30"/><rect x="150" y="420" width="30" height="30"/><rect x="240" y="420" width="30" height="30"/><rect x="300" y="420" width="30" height="30"/><rect x="480" y="420" width="30" height="30"/><rect x="510" y="420" width="30" height="30"/><rect x="540" y="420" width="30" height="30"/><rect x="630" y="420" width="30" height="30"/><rect x="660" y="420" width="30" height="30"/><rect x="690" y="420" width="30" height="30"/><rect x="840" y="420" width="30" height="30"/><rect x="900" y="420" width="30" height="30"/><rect x="930" y="420" width="30" height="30"/><rect x="1020" y="420" width="30" height="30"/><rect x="1110" y="420" width="30" height="30"/><rect x="150" y="450" width="30" height="30"/><rect x="180" y="450" width="30" height="30"/><rect x="210" y="450" width="30" height="30"/><rect x="240" y="450" width="30" height="30"/><rect x="270" y="450" width="30" height="30"/><rect x="330" y="450" width="30" height="30"/><rect x="390" y="450" width="30" height="30"/><rect x="420" y="450" width="30" height="30"/><rect x="450" y="450" width="30" height="30"/><rect x="480" y="450" width="30" height="30"/><rect x="510" y="450" width="30" height="30"/><rect x="570" y="450" width="30" height="30"/><rect x="600" y="450" width="30" height="30"/><rect x="720" y="450" width="30" height="30"/><rect x="750" y="450" width="30" height="30"/><rect x="810" y="450" width="30" height="30"/><rect x="900" y="450" width="30" height="30"/><rect x="960" y="450" width="30" height="30"/><rect x="1080" y="450" width="30" height="30"/><rect x="180" y="480" width="30" height="30"/><rect x="210" y="480" width="30" height="30"/><rect x="240" y="480" width="30" height="30"/><rect x="360" y="480" width="30" height="30"/><rect x="390" y="480" width="30" height="30"/><rect x="420" y="480" width="30" height="30"/><rect x="450" y="480" width="30" height="30"/><rect x="510" y="480" width="30" height="30"/><rect x="570" y="480" width="30" height="30"/><rect x="630" y="480" width="30" height="30"/><rect x="660" y="480" width="30" height="30"/><rect x="690" y="480" width="30" height="30"/><rect x="720" y="480" width="30" height="30"/><rect x="750" y="480" width="30" height="30"/><rect x="840" y="480" width="30" height="30"/><rect x="870" y="480" width="30" height="30"/><rect x="900" y="480" width="30" height="30"/><rect x="1020" y="480" width="30" height="30"/><rect x="1050" y="480" width="30" height="30"/><rect x="180" y="510" width="30" height="30"/><rect x="300" y="510" width="30" height="30"/><rect x="330" y="510" width="30" height="30"/><rect x="360" y="510" width="30" height="30"/><rect x="390" y="510" width="30" height="30"/><rect x="450" y="510" width="30" height="30"/><rect x="540" y="510" width="30" height="30"/><rect x="570" y="510" width="30" height="30"/><rect x="600" y="510" width="30" height="30"/><rect x="660" y="510" width="30" height="30"/><rect x="690" y="510" width="30" height="30"/><rect x="750" y="510" width="30" height="30"/><rect x="780" y="510" width="30" height="30"/><rect x="810" y="510" width="30" height="30"/><rect x="900" y="510" width="30" height="30"/><rect x="960" y="510" width="30" height="30"/><rect x="1080" y="510" width="30" height="30"/><rect x="150" y="540" width="30" height="30"/><rect x="240" y="540" width="30" height="30"/><rect x="270" y="540" width="30" height="30"/><rect x="360" y="540" width="30" height="30"/><rect x="390" y="540" width="30" height="30"/><rect x="450" y="540" width="30" height="30"/><rect x="570" y="540" width="30" height="30"/><rect x="660" y="540" width="30" height="30"/><rect x="690" y="540" width="30" height="30"/><rect x="720" y="540" width="30" height="30"/><rect x="750" y="540" width="30" height="30"/><rect x="840" y="540" width="30" height="30"/><rect x="930" y="540" width="30" height="30"/><rect x="990" y="540" width="30" height="30"/><rect x="1020" y="540" width="30" height="30"/><rect x="1110" y="540" width="30" height="30"/><rect x="180" y="570" width="30" height="30"/><rect x="270" y="570" width="30" height="30"/><rect x="330" y="570" width="30" height="30"/><rect x="390" y="570" width="30" height="30"/><rect x="450" y="570" width="30" height="30"/><rect x="480" y="570" width="30" height="30"/><rect x="510" y="570" width="30" height="30"/><rect x="600" y="570" width="30" height="30"/><rect x="630" y="570" width="30" height="30"/><rect x="690" y="570" width="30" height="30"/><rect x="810" y="570" width="30" height="30"/><rect x="870" y="570" width="30" height="30"/><rect x="900" y="570" width="30" height="30"/><rect x="960" y="570" width="30" height="30"/><rect x="990" y="570" width="30" height="30"/><rect x="1080" y="570" width="30" height="30"/><rect x="150" y="600" width="30" height="30"/><rect x="210" y="600" width="30" height="30"/><rect x="270" y="600" width="30" height="30"/><rect x="300" y="600" width="30" height="30"/><rect x="360" y="600" width="30" height="30"/><rect x="390" y="600" width="30" height="30"/><rect x="450" y="600" width="30" height="30"/><rect x="510" y="600" width="30" height="30"/><rect x="600" y="600" width="30" height="30"/><rect x="660" y="600" width="30" height="30"/><rect x="690" y="600" width="30" height="30"/><rect x="750" y="600" width="30" height="30"/><rect x="780" y="600" width="30" height="30"/><rect x="810" y="600" width="30" height="30"/><rect x="900" y="600" width="30" height="30"/><rect x="930" y="600" width="30" height="30"/><rect x="990" y="600" width="30" height="30"/><rect x="1020" y="600" width="30" height="30"/><rect x="1080" y="600" width="30" height="30"/><rect x="150" y="630" width="30" height="30"/><rect x="180" y="630" width="30" height="30"/><rect x="210" y="630" width="30" height="30"/><rect x="270" y="630" width="30" height="30"/><rect x="300" y="630" width="30" height="30"/><rect x="330" y="630" width="30" height="30"/><rect x="360" y="630" width="30" height="30"/><rect x="540" y="630" width="30" height="30"/><rect x="600" y="630" width="30" height="30"/><rect x="630" y="630" width="30" height="30"/><rect x="690" y="630" width="30" height="30"/><rect x="960" y="630" width="30" height="30"/><rect x="990" y="630" width="30" height="30"/><rect x="1050" y="630" width="30" height="30"/><rect x="1110" y="630" width="30" height="30"/><rect x="150" y="660" width="30" height="30"/><rect x="180" y="660" width="30" height="30"/><rect x="210" y="660" width="30" height="30"/><rect x="240" y="660" width="30" height="30"/><rect x="270" y="660" width="30" height="30"/><rect x="300" y="660" width="30" height="30"/><rect x="420" y="660" width="30" height="30"/><rect x="450" y="660" width="30" height="30"/><rect x="480" y="660" width="30" height="30"/><rect x="510" y="660" width="30" height="30"/><rect x="570" y="660" width="30" height="30"/><rect x="720" y="660" width="30" height="30"/><rect x="750" y="660" width="30" height="30"/><rect x="780" y="660" width="30" height="30"/><rect x="840" y="660" width="30" height="30"/><rect x="870" y="660" width="30" height="30"/><rect x="930" y="660" width="30" height="30"/><rect x="150" y="690" width="30" height="30"/><rect x="180" y="690" width="30" height="30"/><rect x="210" y="690" width="30" height="30"/><rect x="240" y="690" width="30" height="30"/><rect x="300" y="690" width="30" height="30"/><rect x="330" y="690" width="30" height="30"/><rect x="360" y="690" width="30" height="30"/><rect x="450" y="690" width="30" height="30"/><rect x="510" y="690" width="30" height="30"/><rect x="540" y="690" width="30" height="30"/><rect x="570" y="690" width="30" height="30"/><rect x="600" y="690" width="30" height="30"/><rect x="630" y="690" width="30" height="30"/><rect x="690" y="690" width="30" height="30"/><rect x="780" y="690" width="30" height="30"/><rect x="960" y="690" width="30" height="30"/><rect x="990" y="690" width="30" height="30"/><rect x="1050" y="690" width="30" height="30"/><rect x="150" y="720" width="30" height="30"/><rect x="270" y="720" width="30" height="30"/><rect x="360" y="720" width="30" height="30"/><rect x="390" y="720" width="30" height="30"/><rect x="450" y="720" width="30" height="30"/><rect x="510" y="720" width="30" height="30"/><rect x="570" y="720" width="30" height="30"/><rect x="630" y="720" width="30" height="30"/><rect x="690" y="720" width="30" height="30"/><rect x="720" y="720" width="30" height="30"/><rect x="780" y="720" width="30" height="30"/><rect x="810" y="720" width="30" height="30"/><rect x="840" y="720" width="30" height="30"/><rect x="870" y="720" width="30" height="30"/><rect x="900" y="720" width="30" height="30"/><rect x="990" y="720" width="30" height="30"/><rect x="1020" y="720" width="30" height="30"/><rect x="1050" y="720" width="30" height="30"/><rect x="180" y="750" width="30" height="30"/><rect x="330" y="750" width="30" height="30"/><rect x="390" y="750" width="30" height="30"/><rect x="450" y="750" width="30" height="30"/><rect x="570" y="750" width="30" height="30"/><rect x="600" y="750" width="30" height="30"/><rect x="630" y="750" width="30" height="30"/><rect x="660" y="750" width="30" height="30"/><rect x="750" y="750" width="30" height="30"/><rect x="810" y="750" width="30" height="30"/><rect x="870" y="750" width="30" height="30"/><rect x="960" y="750" width="30" height="30"/><rect x="990" y="750" width="30" height="30"/><rect x="1020" y="750" width="30" height="30"/><rect x="150" y="780" width="30" height="30"/><rect x="180" y="780" width="30" height="30"/><rect x="270" y="780" width="30" height="30"/><rect x="360" y="780" width="30" height="30"/><rect x="390" y="780" width="30" height="30"/><rect x="420" y="780" width="30" height="30"/><rect x="450" y="780" width="30" height="30"/><rect x="480" y="780" width="30" height="30"/><rect x="510" y="780" width="30" height="30"/><rect x="600" y="780" width="30" height="30"/><rect x="690" y="780" width="30" height="30"/><rect x="720" y="780" width="30" height="30"/><rect x="750" y="780" width="30" height="30"/><rect x="900" y="780" width="30" height="30"/><rect x="1110" y="780" width="30" height="30"/><rect x="150" y="810" width="30" height="30"/><rect x="210" y="810" width="30" height="30"/><rect x="270" y="810" width="30" height="30"/><rect x="300" y="810" width="30" height="30"/><rect x="330" y="810" width="30" height="30"/><rect x="420" y="810" width="30" height="30"/><rect x="450" y="810" width="30" height="30"/><rect x="480" y="810" width="30" height="30"/><rect x="510" y="810" width="30" height="30"/><rect x="540" y="810" width="30" height="30"/><rect x="570" y="810" width="30" height="30"/><rect x="600" y="810" width="30" height="30"/><rect x="630" y="810" width="30" height="30"/><rect x="690" y="810" width="30" height="30"/><rect x="720" y="810" width="30" height="30"/><rect x="780" y="810" width="30" height="30"/><rect x="810" y="810" width="30" height="30"/><rect x="840" y="810" width="30" height="30"/><rect x="870" y="810" width="30" height="30"/><rect x="960" y="810" width="30" height="30"/><rect x="990" y="810" width="30" height="30"/><rect x="1020" y="810" width="30" height="30"/><rect x="1050" y="810" width="30" height="30"/><rect x="1080" y="810" width="30" height="30"/><rect x="150" y="840" width="30" height="30"/><rect x="300" y="840" width="30" height="30"/><rect x="360" y="840" width="30" height="30"/><rect x="390" y="840" width="30" height="30"/><rect x="480" y="840" width="30" height="30"/><rect x="570" y="840" width="30" height="30"/><rect x="630" y="840" width="30" height="30"/><rect x="660" y="840" width="30" height="30"/><rect x="690" y="840" width="30" height="30"/><rect x="750" y="840" width="30" height="30"/><rect x="780" y="840" width="30" height="30"/><rect x="810" y="840" width="30" height="30"/><rect x="840" y="840" width="30" height="30"/><rect x="1020" y="840" width="30" height="30"/><rect x="1050" y="840" width="30" height="30"/><rect x="1080" y="840" width="30" height="30"/><rect x="150" y="870" width="30" height="30"/><rect x="240" y="870" width="30" height="30"/><rect x="270" y="870" width="30" height="30"/><rect x="300" y="870" width="30" height="30"/><rect x="330" y="870" width="30" height="30"/><rect x="390" y="870" width="30" height="30"/><rect x="510" y="870" width="30" height="30"/><rect x="630" y="870" width="30" height="30"/><rect x="660" y="870" width="30" height="30"/><rect x="720" y="870" width="30" height="30"/><rect x="750" y="870" width="30" height="30"/><rect x="780" y="870" width="30" height="30"/><rect x="840" y="870" width="30" height="30"/><rect x="870" y="870" width="30" height="30"/><rect x="900" y="870" width="30" height="30"/><rect x="930" y="870" width="30" height="30"/><rect x="960" y="870" width="30" height="30"/><rect x="990" y="870" width="30" height="30"/><rect x="1110" y="870" width="30" height="30"/><rect x="390" y="900" width="30" height="30"/><rect x="450" y="900" width="30" height="30"/><rect x="480" y="900" width="30" height="30"/><rect x="510" y="900" width="30" height="30"/><rect x="540" y="900" width="30" height="30"/><rect x="660" y="900" width="30" height="30"/><rect x="690" y="900" width="30" height="30"/><rect x="720" y="900" width="30" height="30"/><rect x="750" y="900" width="30" height="30"/><rect x="780" y="900" width="30" height="30"/><rect x="870" y="900" width="30" height="30"/><rect x="990" y="900" width="30" height="30"/><rect x="1080" y="900" width="30" height="30"/><rect x="1110" y="900" width="30" height="30"/><rect x="150" y="930" width="30" height="30"/><rect x="180" y="930" width="30" height="30"/><rect x="210" y="930" width="30" height="30"/><rect x="240" y="930" width="30" height="30"/><rect x="270" y="930" width="30" height="30"/><rect x="300" y="930" width="30" height="30"/><rect x="330" y="930" width="30" height="30"/><rect x="420" y="930" width="30" height="30"/><rect x="450" y="930" width="30" height="30"/><rect x="480" y="930" width="30" height="30"/><rect x="630" y="930" width="30" height="30"/><rect x="660" y="930" width="30" height="30"/><rect x="690" y="930" width="30" height="30"/><rect x="750" y="930" width="30" height="30"/><rect x="780" y="930" width="30" height="30"/><rect x="840" y="930" width="30" height="30"/><rect x="870" y="930" width="30" height="30"/><rect x="930" y="930" width="30" height="30"/><rect x="990" y="930" width="30" height="30"/><rect x="1020" y="930" width="30" height="30"/><rect x="1050" y="930" width="30" height="30"/><rect x="1080" y="930" width="30" height="30"/><rect x="150" y="960" width="30" height="30"/><rect x="330" y="960" width="30" height="30"/><rect x="450" y="960" width="30" height="30"/><rect x="600" y="960" width="30" height="30"/><rect x="660" y="960" width="30" height="30"/><rect x="720" y="960" width="30" height="30"/><rect x="750" y="960" width="30" height="30"/><rect x="780" y="960" width="30" height="30"/><rect x="810" y="960" width="30" height="30"/><rect x="840" y="960" width="30" height="30"/><rect x="870" y="960" width="30" height="30"/><rect x="990" y="960" width="30" height="30"/><rect x="1020" y="960" width="30" height="30"/><rect x="1050" y="960" width="30" height="30"/><rect x="1080" y="960" width="30" height="30"/><rect x="1110" y="960" width="30" height="30"/><rect x="150" y="990" width="30" height="30"/><rect x="210" y="990" width="30" height="30"/><rect x="240" y="990" width="30" height="30"/><rect x="270" y="990" width="30" height="30"/><rect x="330" y="990" width="30" height="30"/><rect x="390" y="990" width="30" height="30"/><rect x="450" y="990" width="30" height="30"/><rect x="570" y="990" width="30" height="30"/><rect x="630" y="990" width="30" height="30"/><rect x="660" y="990" width="30" height="30"/><rect x="690" y="990" width="30" height="30"/><rect x="720" y="990" width="30" height="30"/><rect x="780" y="990" width="30" height="30"/><rect x="870" y="990" width="30" height="30"/><rect x="900" y="990" width="30" height="30"/><rect x="930" y="990" width="30" height="30"/><rect x="960" y="990" width="30" height="30"/><rect x="990" y="990" width="30" height="30"/><rect x="1080" y="990" width="30" height="30"/><rect x="1110" y="990" width="30" height="30"/><rect x="150" y="1020" width="30" height="30"/><rect x="210" y="1020" width="30" height="30"/><rect x="240" y="1020" width="30" height="30"/><rect x="270" y="1020" width="30" height="30"/><rect x="330" y="1020" width="30" height="30"/><rect x="390" y="1020" width="30" height="30"/><rect x="450" y="1020" width="30" height="30"/><rect x="480" y="1020" width="30" height="30"/><rect x="570" y="1020" width="30" height="30"/><rect x="600" y="1020" width="30" height="30"/><rect x="660" y="1020" width="30" height="30"/><rect x="690" y="1020" width="30" height="30"/><rect x="720" y="1020" width="30" height="30"/><rect x="810" y="1020" width="30" height="30"/><rect x="900" y="1020" width="30" height="30"/><rect x="990" y="1020" width="30" height="30"/><rect x="1050" y="1020" width="30" height="30"/><rect x="1080" y="1020" width="30" height="30"/><rect x="150" y="1050" width="30" height="30"/><rect x="210" y="1050" width="30" height="30"/><rect x="240" y="1050" width="30" height="30"/><rect x="270" y="1050" width="30" height="30"/><rect x="330" y="1050" width="30" height="30"/><rect x="390" y="1050" width="30" height="30"/><rect x="420" y="1050" width="30" height="30"/><rect x="570" y="1050" width="30" height="30"/><rect x="630" y="1050" width="30" height="30"/><rect x="660" y="1050" width="30" height="30"/><rect x="780" y="1050" width="30" height="30"/><rect x="810" y="1050" width="30" height="30"/><rect x="840" y="1050" width="30" height="30"/><rect x="900" y="1050" width="30" height="30"/><rect x="930" y="1050" width="30" height="30"/><rect x="1020" y="1050" width="30" height="30"/><rect x="1050" y="1050" width="30" height="30"/><rect x="150" y="1080" width="30" height="30"/><rect x="330" y="1080" width="30" height="30"/><rect x="540" y="1080" width="30" height="30"/><rect x="570" y="1080" width="30" height="30"/><rect x="720" y="1080" width="30" height="30"/><rect x="750" y="1080" width="30" height="30"/><rect x="780" y="1080" width="30" height="30"/><rect x="840" y="1080" width="30" height="30"/><rect x="960" y="1080" width="30" height="30"/><rect x="1050" y="1080" width="30" height="30"/><rect x="150" y="1110" width="30" height="30"/><rect x="180" y="1110" width="30" height="30"/><rect x="210" y="1110" width="30" height="30"/><rect x="240" y="1110" width="30" height="30"/><rect x="270" y="1110" width="30" height="30"/><rect x="300" y="1110" width="30" height="30"/><rect x="330" y="1110" width="30" height="30"/><rect x="450" y="1110" width="30" height="30"/><rect x="510" y="1110" width="30" height="30"/><rect x="660" y="1110" width="30" height="30"/><rect x="690" y="1110" width="30" height="30"/><rect x="750" y="1110" width="30" height="30"/><rect x="780" y="1110" width="30" height="30"/><rect x="840" y="1110" width="30" height="30"/><rect x="870" y="1110" width="30" height="30"/><rect x="900" y="1110" width="30" height="30"/><rect x="930" y="1110" width="30" height="30"/><rect x="1020" y="1110" width="30" height="30"/><rect x="1050" y="1110" width="30" height="30"/><rect x="1080" y="1110" width="30" height="30"/></g></svg>